<svg width="103" height="106" viewBox="0 0 103 106" fill="none" xmlns="http://www.w3.org/2000/svg">
<path d="M103 83.2H87.8V68H80.2V83.2H65V90.8H80.2V106H87.8V90.8H103V83.2Z" fill="#405936"/>
<path d="M76.3636 11.3571H64.9091V7.57143C64.903 5.5652 64.0966 3.64286 62.6658 2.22424C61.235 0.805618 59.2962 0.00599175 57.2727 0H26.7273C24.7038 0.00599175 22.765 0.805618 21.3342 2.22424C19.9034 3.64286 19.097 5.5652 19.0909 7.57143V11.3571H7.63636C5.61293 11.3631 3.6741 12.1628 2.24332 13.5814C0.812527 15 0.00604314 16.9223 0 18.9286V98.4286C0.00604314 100.435 0.812527 102.357 2.24332 103.776C3.6741 105.194 5.61293 105.994 7.63636 106H45.8182V98.4286H7.63636V18.9286H19.0909V30.2857H64.9091V18.9286H76.3636V53H84V18.9286C83.994 16.9223 83.1875 15 81.7567 13.5814C80.3259 12.1628 78.3871 11.3631 76.3636 11.3571ZM57.2727 22.7143H26.7273V7.57143H57.2727V22.7143Z" fill="#405936"/>
</svg>
