<svg width="150" height="150" viewBox="0 0 150 150" fill="none" xmlns="http://www.w3.org/2000/svg">
<path d="M75 75C92.2589 75 106.25 61.0089 106.25 43.75C106.25 26.4911 92.2589 12.5 75 12.5C57.7411 12.5 43.75 26.4911 43.75 43.75C43.75 61.0089 57.7411 75 75 75Z" stroke="#405936" stroke-width="10"/>
<path d="M106.25 137.25H32.9125C31.1399 137.25 29.3875 136.874 27.7715 136.145C26.1556 135.416 24.7131 134.352 23.5399 133.024C22.3666 131.695 21.4893 130.132 20.9663 128.438C20.4433 126.744 20.2865 124.959 20.5063 123.2L22.9438 103.675C23.5106 99.1389 25.7151 94.9661 29.1427 91.9414C32.5703 88.9166 36.9849 87.2482 41.5563 87.25H43.75M118.75 81V118.5M100 99.75H137.5" stroke="#405936" stroke-width="10" stroke-linecap="round" stroke-linejoin="round"/>
</svg>
