<svg width="132" height="123" viewBox="0 0 132 123" fill="none" xmlns="http://www.w3.org/2000/svg">
<path d="M47.25 19.125H28.5V0.375H19.125V19.125H0.375V28.5H19.125V47.25H28.5V28.5H47.25V19.125Z" fill="#405936"/>
<path d="M131.245 68.8406L117.183 36.0281C116.822 35.1847 116.221 34.4659 115.455 33.9609C114.69 33.4559 113.792 33.187 112.875 33.1875H98.8125V23.8125C98.8125 22.5693 98.3186 21.377 97.4396 20.4979C96.5605 19.6189 95.3682 19.125 94.125 19.125H61.3125V28.5H89.4375V87.3562C87.3016 88.5965 85.4323 90.2474 83.9375 92.2137C82.4427 94.1799 81.3519 96.4226 80.7281 98.8125H51.2719C50.2522 94.7895 47.9202 91.2214 44.6448 88.6726C41.3694 86.1239 37.3377 84.74 33.1875 84.74C29.0373 84.74 25.0056 86.1239 21.7302 88.6726C18.4548 91.2214 16.1228 94.7895 15.1031 98.8125H9.75V56.625H0.375V103.5C0.375 104.743 0.86886 105.935 1.74794 106.815C2.62701 107.694 3.8193 108.188 5.0625 108.188H15.1031C16.1228 112.21 18.4548 115.779 21.7302 118.327C25.0056 120.876 29.0373 122.26 33.1875 122.26C37.3377 122.26 41.3694 120.876 44.6448 118.327C47.9202 115.779 50.2522 112.21 51.2719 108.188H80.7281C81.7478 112.21 84.0798 115.779 87.3552 118.327C90.6306 120.876 94.6623 122.26 98.8125 122.26C102.963 122.26 106.994 120.876 110.27 118.327C113.545 115.779 115.877 112.21 116.897 108.188H126.938C128.181 108.188 129.373 107.694 130.252 106.815C131.131 105.935 131.625 104.743 131.625 103.5V70.6875C131.625 70.0525 131.496 69.4241 131.245 68.8406V68.8406ZM33.1875 112.875C31.3333 112.875 29.5207 112.325 27.979 111.295C26.4373 110.265 25.2357 108.801 24.5261 107.088C23.8166 105.375 23.6309 103.49 23.9926 101.671C24.3544 99.8525 25.2473 98.182 26.5584 96.8709C27.8695 95.5598 29.54 94.6669 31.3585 94.3051C33.1771 93.9434 35.0621 94.1291 36.7752 94.8386C38.4882 95.5482 39.9524 96.7498 40.9825 98.2915C42.0127 99.8332 42.5625 101.646 42.5625 103.5C42.5588 105.985 41.5699 108.368 39.8125 110.125C38.0552 111.882 35.6728 112.871 33.1875 112.875V112.875ZM98.8125 42.5625H109.781L119.831 66H98.8125V42.5625ZM98.8125 112.875C96.9583 112.875 95.1457 112.325 93.604 111.295C92.0623 110.265 90.8607 108.801 90.1511 107.088C89.4416 105.375 89.2559 103.49 89.6176 101.671C89.9794 99.8525 90.8723 98.182 92.1834 96.8709C93.4945 95.5598 95.165 94.6669 96.9835 94.3051C98.8021 93.9434 100.687 94.1291 102.4 94.8386C104.113 95.5482 105.577 96.7498 106.608 98.2915C107.638 99.8332 108.188 101.646 108.188 103.5C108.185 105.986 107.197 108.369 105.439 110.126C103.681 111.884 101.298 112.873 98.8125 112.875ZM122.25 98.8125H116.897C115.864 94.7973 113.529 91.2383 110.256 88.6934C106.983 86.1485 102.958 84.7615 98.8125 84.75V75.375H122.25V98.8125Z" fill="#405936"/>
</svg>
